<?xml version="1.0" encoding="UTF-8"?>
<svg id="_Слой_1" data-name="Слой 1" xmlns="http://www.w3.org/2000/svg" viewBox="0 0 358.47 54.64">
  <defs>
    <style>
      .cls-1 {
        fill: #fff;
      }

      .cls-2, .cls-3 {
        fill: #55b36b;
      }

      .cls-3 {
        letter-spacing: -.01em;
      }

      .cls-4 {
        font-family: Montserrat-Bold, Montserrat;
        font-size: 34.7px;
        font-weight: 700;
      }
    </style>
  </defs>
  <text class="cls-4" transform="translate(73.98 43.48)"><tspan class="cls-1" x="0" y="0">Нейро</tspan><tspan class="cls-3" x="122.07" y="0">Р</tspan><tspan class="cls-2" x="146.81" y="0">ейтинг</tspan></text>
  <path class="cls-2" d="m17.52,7.55l7.51,6.29c.39.33.93.45,1.42.31l9.43-2.62c1.25-.35,2.36.89,1.87,2.09l-3.66,9.08c-.19.48-.14,1.02.15,1.45l5.41,8.16c.72,1.08-.12,2.52-1.41,2.43l-9.77-.67c-.51-.04-1.01.18-1.33.59l-6.09,7.66c-.81,1.02-2.43.66-2.74-.59l-2.38-9.5c-.13-.5-.49-.91-.97-1.09l-9.17-3.43c-1.22-.45-1.38-2.1-.28-2.79l8.3-5.2c.44-.27.71-.74.73-1.26l.42-9.78c.06-1.3,1.57-1.97,2.57-1.13Z"/>
  <rect class="cls-1" x="30.46" y="20.17" width="5.9" height="20.49" rx="1.54" ry="1.54" transform="translate(-9.58 44.3) rotate(-60.22)"/>
  <path class="cls-1" d="m42.46,24.78c-1.45-.83-3.29-.36-4.09,1.05-.81,1.41-.29,3.23,1.17,4.06l4.5,2.57,2.93-5.12-4.5-2.57Z"/>
  <path class="cls-1" d="m45.7,19.13c-1.45-.83-3.29-.36-4.09,1.05s-.29,3.23,1.17,4.06l4.5,2.57,2.93-5.12-4.5-2.57Z"/>
  <path class="cls-1" d="m48.86,13.53c-1.45-.83-3.29-.36-4.09,1.05s-.29,3.23,1.17,4.06l4.5,2.57,2.93-5.12-4.5-2.57Z"/>
  <g>
    <path class="cls-1" d="m41.51,40.54l-8.04,2.65c-1.55.51-2.39,2.18-1.88,3.72.51,1.55,2.18,2.39,3.72,1.88l12.36-4.08-5.63-3.22c-.35-.2-.53-.57-.54-.95Z"/>
    <path class="cls-1" d="m69.87,28.84l-3.47-5.38c-.1-.15-.22-.27-.38-.36l-9.51-5.44c-.53-.3-1.2-.12-1.5.41l-11.47,20.03c-.1.17-.13.36-.13.55,0,.38.18.75.54.95l5.63,3.22,3.92,2.24c.12.07.26.12.4.14l6.04.8c.44.06.88-.16,1.1-.54l8.86-15.47c.2-.36.19-.8-.03-1.14Z"/>
  </g>
</svg>